<svg width="24" height="24" viewBox="0 0 24 24" fill="none" xmlns="http://www.w3.org/2000/svg">
<path d="M9.5 19.75C10.1904 19.75 10.75 19.1904 10.75 18.5C10.75 17.8096 10.1904 17.25 9.5 17.25C8.80964 17.25 8.25 17.8096 8.25 18.5C8.25 19.1904 8.80964 19.75 9.5 19.75Z" fill="#111111"/>
<path d="M17.5 19.75C18.1904 19.75 18.75 19.1904 18.75 18.5C18.75 17.8096 18.1904 17.25 17.5 17.25C16.8096 17.25 16.25 17.8096 16.25 18.5C16.25 19.1904 16.8096 19.75 17.5 19.75Z" fill="#111111"/>
<path d="M20.6084 7.56152C20.539 7.46503 20.4476 7.38646 20.3418 7.33229C20.236 7.27812 20.1189 7.24991 20 7.25H7.54053L6.71143 4.7627C6.66164 4.6134 6.56614 4.48354 6.43846 4.39153C6.31078 4.29951 6.15738 4.25 6 4.25H3C2.80109 4.25 2.61032 4.32902 2.46967 4.46967C2.32902 4.61032 2.25 4.80109 2.25 5C2.25 5.19891 2.32902 5.38968 2.46967 5.53033C2.61032 5.67098 2.80109 5.75 3 5.75H5.45947L6.2832 8.2207L6.29395 8.25391L8.28857 14.2373C8.33844 14.3865 8.43396 14.5163 8.56162 14.6084C8.68929 14.7004 8.84264 14.7499 9 14.75H18C18.1574 14.7499 18.3108 14.7004 18.4386 14.6084C18.5663 14.5164 18.6619 14.3866 18.7119 14.2373L20.7119 8.2373C20.7493 8.1245 20.7595 8.00443 20.7415 7.88695C20.7235 7.76948 20.6779 7.65794 20.6084 7.56152ZM17.459 13.25H9.54053L8.04053 8.75H18.959L17.459 13.25Z" fill="#111111"/>
</svg>
