<svg width="22" height="19" viewBox="0 0 22 19" fill="none" xmlns="http://www.w3.org/2000/svg">
<path fill-rule="evenodd" clip-rule="evenodd" d="M4.14345 0.308871C4.28458 0.114813 4.51005 0 4.75 0H16.75C16.99 0 17.2154 0.114813 17.3566 0.308871L21.3566 5.80887C21.5621 6.09144 21.5452 6.47848 21.316 6.74213L11.316 18.2421C11.1735 18.4059 10.9671 18.5 10.75 18.5C10.5329 18.5 10.3265 18.4059 10.184 18.2421L0.184048 6.74213C-0.0452168 6.47848 -0.0620535 6.09144 0.14345 5.80887L4.14345 0.308871ZM4.51753 2.34479L2.22283 5.5H5.63113L4.51753 2.34479ZM6.16054 7H2.39607L8.73231 14.2867L6.16054 7ZM12.7677 14.2867L19.1039 7H15.3395L12.7677 14.2867ZM13.7488 7H7.75123L10.75 15.4965L13.7488 7ZM15.8689 5.5H19.2772L16.9825 2.34479L15.8689 5.5ZM15.69 1.5H12.2356L14.5724 4.6665L15.69 1.5ZM13.3232 5.5L10.75 2.01308L8.17677 5.5H13.3232ZM6.92764 4.6665L9.26441 1.5H5.81005L6.92764 4.6665Z" fill="#111111"/>
</svg>
