<svg width="24" height="24" viewBox="0 0 24 24" fill="none" xmlns="http://www.w3.org/2000/svg">
<path d="M9.25 4.5C9.25 4.08579 8.91421 3.75 8.5 3.75H4.5C4.08579 3.75 3.75 4.08579 3.75 4.5V10.5C3.75 10.9142 4.08579 11.25 4.5 11.25H8.5C8.91421 11.25 9.25 10.9142 9.25 10.5V4.5ZM10.75 10.5C10.75 11.7426 9.74264 12.75 8.5 12.75H4.5C3.25736 12.75 2.25 11.7426 2.25 10.5V4.5C2.25 3.25736 3.25736 2.25 4.5 2.25H8.5C9.74264 2.25 10.75 3.25736 10.75 4.5V10.5Z" fill="#111111"/>
<path d="M9.25 17.5C9.25 17.0858 8.91421 16.75 8.5 16.75H4.5C4.08579 16.75 3.75 17.0858 3.75 17.5V19.5C3.75 19.9142 4.08579 20.25 4.5 20.25H8.5C8.91421 20.25 9.25 19.9142 9.25 19.5V17.5ZM10.75 19.5C10.75 20.7426 9.74264 21.75 8.5 21.75H4.5C3.25736 21.75 2.25 20.7426 2.25 19.5V17.5C2.25 16.2574 3.25736 15.25 4.5 15.25H8.5C9.74264 15.25 10.75 16.2574 10.75 17.5V19.5Z" fill="#111111"/>
<path d="M20.25 4.5C20.25 4.08579 19.9142 3.75 19.5 3.75H15.5C15.0858 3.75 14.75 4.08579 14.75 4.5V19.5C14.75 19.9142 15.0858 20.25 15.5 20.25H19.5C19.9142 20.25 20.25 19.9142 20.25 19.5V4.5ZM21.75 19.5C21.75 20.7426 20.7426 21.75 19.5 21.75H15.5C14.2574 21.75 13.25 20.7426 13.25 19.5V4.5C13.25 3.25736 14.2574 2.25 15.5 2.25H19.5C20.7426 2.25 21.75 3.25736 21.75 4.5V19.5Z" fill="#111111"/>
</svg>
