<svg width="24" height="24" viewBox="0 0 24 24" fill="none" xmlns="http://www.w3.org/2000/svg">
<path fill-rule="evenodd" clip-rule="evenodd" d="M8.24994 3C8.24994 2.58579 8.58573 2.25 8.99994 2.25H14.9999C15.4142 2.25 15.7499 2.58579 15.7499 3C15.7499 3.32656 15.5412 3.60437 15.2499 3.70733V7.86594L21.6168 17.0734C21.63 17.0925 21.6423 17.1121 21.6536 17.1323C22.2459 18.1852 22.161 19.4492 21.6874 20.4269C21.2132 21.4059 20.2665 22.25 18.9999 22.25H4.99994C3.73338 22.25 2.78666 21.4059 2.31246 20.4269C1.83887 19.4492 1.75401 18.1852 2.34626 17.1323C2.35761 17.1121 2.36989 17.0925 2.38306 17.0734L8.74993 7.86594V3.70732C8.45864 3.60436 8.24994 3.32655 8.24994 3ZM10.2499 3.75V8.09999C10.2499 8.2524 10.2035 8.4012 10.1168 8.52656L8.23358 11.25H15.7663L13.8831 8.52656C13.7964 8.4012 13.7499 8.2524 13.7499 8.09999V3.75H10.2499ZM16.8035 12.75H7.19635L3.6385 17.8952C3.34646 18.4393 3.36604 19.1612 3.66243 19.7731C3.96323 20.3941 4.46651 20.75 4.99994 20.75H18.9999C19.5334 20.75 20.0366 20.3941 20.3375 19.7731C20.6338 19.1611 20.6534 18.4393 20.3614 17.8952L16.8035 12.75Z" fill="#111111"/>
</svg>
