<svg width="24" height="24" viewBox="0 0 24 24" fill="none" xmlns="http://www.w3.org/2000/svg">
<path d="M6.5 16C7.32843 16 8 16.6716 8 17.5C8 18.3284 7.32843 19 6.5 19C5.67157 19 5 18.3284 5 17.5C5 16.6716 5.67157 16 6.5 16Z" fill="#111111"/>
<path fill-rule="evenodd" clip-rule="evenodd" d="M8.5 2.25C9.24478 2.25 9.90299 2.61339 10.3125 3.1709C11.0005 2.71826 11.9118 2.66064 12.6738 3.10059L16.1377 5.10059C16.7846 5.4741 17.1737 6.12068 17.248 6.81055C17.9489 6.87635 18.6084 7.26792 18.9873 7.92383L20.9873 11.3887C21.6083 12.4648 21.2391 13.8407 20.1631 14.4619L9.27734 20.7461C9.19719 20.8042 9.11584 20.86 9.03223 20.9121C8.32486 21.4379 7.44912 21.75 6.5 21.75C4.15279 21.75 2.25 19.8472 2.25 17.5V4.5C2.25 3.25736 3.25736 2.25 4.5 2.25H8.5ZM4.5 3.75C4.08579 3.75 3.75 4.08579 3.75 4.5V17.5C3.75 19.0188 4.98122 20.25 6.5 20.25C8.01878 20.25 9.25 19.0188 9.25 17.5V4.5C9.25 4.08579 8.91421 3.75 8.5 3.75H4.5ZM16.877 8.31934L11.415 17.7793L19.4131 13.1631C19.7717 12.9561 19.8952 12.4973 19.6885 12.1387L17.6885 8.67383C17.5207 8.38355 17.1881 8.25057 16.877 8.31934ZM11.9238 4.39941C11.5652 4.19234 11.1066 4.31523 10.8994 4.67383L10.75 4.93164V15.9307L15.6621 7.42383C15.8691 7.06512 15.7464 6.6065 15.3877 6.39941L11.9238 4.39941Z" fill="#111111"/>
</svg>
