<svg width="24" height="24" viewBox="0 0 24 24" fill="none" xmlns="http://www.w3.org/2000/svg">
<path d="M17.3198 12.0029C17.3432 10.7408 16.9189 9.51115 16.1222 8.53196C15.3255 7.55277 14.2078 6.88728 12.9673 6.65346C11.7268 6.41964 10.4436 6.63259 9.34509 7.25456C8.2466 7.87652 7.40379 8.86734 6.96607 10.0514C6.52835 11.2354 6.52399 12.5362 6.95376 13.7231C7.38352 14.9101 8.21966 15.9065 9.31396 16.5359C10.4083 17.1652 11.69 17.3867 12.9321 17.1612C14.1741 16.9357 15.2962 16.2778 16.0995 15.3039C16.3992 15.987 16.9248 16.546 17.5881 16.8873C18.2514 17.2285 19.0118 17.3311 19.7418 17.1778C20.4718 17.0245 21.1268 16.6247 21.5968 16.0455C22.0667 15.4663 22.3231 14.743 22.3228 13.9971V11.9058C22.3228 5.00183 16.7551 1.87158 11.9912 1.87158C10.6428 1.83565 9.3004 2.07116 8.0448 2.56413C6.7892 3.0571 5.64552 3.79746 4.68173 4.7412C3.71795 5.68495 2.95372 6.81282 2.43448 8.05779C1.91524 9.30275 1.65158 10.6394 1.65918 11.9883C1.64259 13.6535 2.04855 15.2957 2.83912 16.7614C3.62969 18.2271 4.77904 19.4684 6.17969 20.3691C7.92038 21.5511 9.97313 22.189 12.0772 22.2017C13.4355 22.2038 14.7794 21.9225 16.023 21.376C16.2047 21.2976 16.3516 21.1458 16.424 20.9616C16.4964 20.7773 16.4921 20.5662 16.4123 20.385C16.3326 20.2039 16.1797 20.0581 15.995 19.9871C15.8102 19.9161 15.5991 19.9219 15.4185 20.003C14.0575 20.5789 12.5727 20.8002 11.1029 20.6463C9.63307 20.4923 8.22633 19.9681 7.01421 19.1226C5.82546 18.3632 4.84842 17.3151 4.17424 16.076C3.50005 14.8369 3.15069 13.4473 3.15874 12.0367C3.1513 10.8825 3.37593 9.73861 3.81929 8.67295C4.26266 7.60729 4.9157 6.64163 5.73962 5.83333C6.56355 5.02504 7.54154 4.3906 8.61549 3.96772C9.68944 3.54485 10.8374 3.34215 11.9913 3.37169C13.1445 3.34224 14.2919 3.54479 15.3654 3.96733C16.4389 4.38987 17.4165 5.02378 18.2402 5.83143C19.064 6.63908 19.7171 7.604 20.1607 8.66892C20.6043 9.73383 20.8295 10.877 20.8228 12.0306V13.9972C20.8198 14.4596 20.6341 14.902 20.3063 15.228C19.9784 15.5541 19.5349 15.7373 19.0725 15.7378C18.6102 15.7382 18.1663 15.5559 17.8379 15.2305C17.5094 14.905 17.3228 14.463 17.3189 14.0006L17.3198 12.0029ZM12 15.7471C11.2618 15.7329 10.5443 15.501 9.93748 15.0805C9.33064 14.66 8.86152 14.0696 8.58899 13.3834C8.31646 12.6973 8.25266 11.9459 8.40559 11.2237C8.55853 10.5014 8.92139 9.84036 9.44864 9.32356C9.97589 8.80676 10.644 8.45719 11.3692 8.31874C12.0944 8.18028 12.8444 8.25911 13.5249 8.54531C14.2055 8.83152 14.7863 9.31236 15.1946 9.92749C15.6029 10.5426 15.8204 11.2646 15.8198 12.0029C15.8086 13.0056 15.4001 13.9629 14.684 14.6648C13.9679 15.3667 13.0027 15.7559 12 15.7471Z" fill="#111111"/>
</svg>
