<svg width="24" height="24" viewBox="0 0 24 24" fill="none" xmlns="http://www.w3.org/2000/svg">
<path d="M11 11.7575C9.5405 11.7575 7.08594 11.0959 7.08594 6.66522C7.06898 6.14307 7.14671 5.62216 7.31538 5.12772C7.49887 4.63708 7.78549 4.19151 8.15589 3.82111C8.5263 3.4507 8.97186 3.16408 9.4625 2.9806C10.4577 2.63106 11.5424 2.63106 12.5376 2.9806C13.0283 3.16407 13.4739 3.45068 13.8443 3.82107C14.2147 4.19147 14.5014 4.63704 14.6849 5.12769C14.8516 5.62251 14.9273 6.14345 14.9082 6.66525C14.9082 11.0959 12.46 11.7575 11 11.7575ZM11 4.20281C10.6724 4.20444 10.3474 4.26019 10.038 4.36781C9.72962 4.47618 9.44953 4.65244 9.2184 4.88357C8.98727 5.1147 8.81101 5.3948 8.70264 5.70318C8.61161 6.01527 8.57429 6.34058 8.59229 6.66518C8.59229 10.2575 10.3413 10.2575 11 10.2575C11.6587 10.2575 13.4082 10.2575 13.4082 6.66522C13.4262 6.34055 13.3889 6.01519 13.2979 5.70303C13.1895 5.39461 13.0132 5.11449 12.782 4.88335C12.5508 4.65221 12.2706 4.47597 11.9622 4.36765C11.6527 4.26011 11.3276 4.20441 11 4.20281Z" fill="#111111"/>
<path d="M17.9883 21.1804H3.98779C3.52384 21.1798 3.07905 20.9953 2.75099 20.6672C2.42292 20.3391 2.23836 19.8944 2.23779 19.4304L2.23828 18.9216C2.23828 15.3278 6.68701 13.1804 10.9878 13.1804C15.2891 13.1804 19.7383 15.3278 19.7383 18.9225V19.4304C19.7377 19.8943 19.5532 20.3391 19.2251 20.6672C18.897 20.9953 18.4523 21.1798 17.9883 21.1804ZM10.9878 14.6804C7.50146 14.6804 3.73828 16.3024 3.73828 18.9225L3.73779 19.4313C3.73875 19.4972 3.76543 19.5601 3.81214 19.6067C3.85884 19.6532 3.92188 19.6796 3.98779 19.6803H17.9883C18.0544 19.6796 18.1175 19.653 18.1643 19.6062C18.211 19.5595 18.2376 19.4964 18.2383 19.4303V18.9225C18.2383 16.3024 14.4746 14.6804 10.9878 14.6804Z" fill="#111111"/>
<path d="M21 7.2575H17C16.8011 7.2575 16.6103 7.17848 16.4697 7.03783C16.329 6.89718 16.25 6.70641 16.25 6.5075C16.25 6.30859 16.329 6.11782 16.4697 5.97717C16.6103 5.83652 16.8011 5.7575 17 5.7575H21C21.1989 5.7575 21.3897 5.83652 21.5303 5.97717C21.671 6.11782 21.75 6.30859 21.75 6.5075C21.75 6.70641 21.671 6.89718 21.5303 7.03783C21.3897 7.17848 21.1989 7.2575 21 7.2575Z" fill="#111111"/>
</svg>
